<svg width="135" height="24" viewBox="0 0 135 24" fill="none" xmlns="http://www.w3.org/2000/svg">
	<path d="M37.5013 13.6409L39.6688 18.053H37.5163L35.3389 13.6409H32.1649V18.053H30.1719V6.25391H39.1656V13.6409H37.5013ZM32.1649 12.0126H37.317V8.07319H32.1649V12.0126Z" fill="#000"/>
	<path d="M47.5425 7.9881V11.3258H52.6248V13.064H47.5425V16.3158H52.6248V18.0491H45.5195V6.25H52.6248V7.9881H47.5425Z" fill="#000"/>
	<path d="M65.7181 14.6484V6.25391H67.7461V18.053H65.5288L60.6558 9.65851V18.053H58.6328V6.25391H60.8501L65.7181 14.6484Z" fill="#000"/>
	<path d="M75.7358 7.98713H72.6914V6.24902H80.8181V7.98713H77.7587V18.0481H75.7358V7.98713Z" fill="#000"/>
	<path d="M91.1491 18.3351C90.1625 18.3351 89.2756 18.1632 88.4833 17.8242C87.6911 17.4804 87.0234 17.022 86.4803 16.449C85.9322 15.876 85.5137 15.217 85.2197 14.4673C84.9257 13.7224 84.7812 12.9489 84.7812 12.1514C84.7812 11.354 84.9257 10.5805 85.2197 9.83555C85.5137 9.08587 85.9322 8.42692 86.4803 7.85392C87.0234 7.28091 87.6911 6.82251 88.4833 6.47871C89.2756 6.1349 90.1625 5.96777 91.1491 5.96777C92.1356 5.96777 93.0225 6.13968 93.8148 6.47871C94.607 6.82251 95.2747 7.28091 95.8178 7.85392C96.3609 8.42692 96.7794 9.09065 97.0734 9.83555C97.3674 10.5805 97.5119 11.354 97.5119 12.1514C97.5119 12.9489 97.3674 13.7224 97.0734 14.4673C96.7794 15.217 96.3609 15.876 95.8178 16.449C95.2747 17.022 94.602 17.4804 93.8148 17.8242C93.0225 18.168 92.1356 18.3351 91.1491 18.3351ZM91.1491 16.597C91.8068 16.597 92.3947 16.4776 92.9129 16.2293C93.4361 15.981 93.8845 15.6515 94.2483 15.2361C94.617 14.8207 94.901 14.3432 95.0953 13.8132C95.2896 13.2784 95.3843 12.7244 95.3843 12.1514C95.3843 11.5784 95.2896 11.0245 95.0953 10.4897C94.906 9.95492 94.622 9.48221 94.2483 9.06678C93.8796 8.65135 93.4361 8.3171 92.9129 8.0688C92.3947 7.8205 91.8018 7.70111 91.1491 7.70111C90.4963 7.70111 89.9034 7.82527 89.3852 8.0688C88.862 8.3171 88.4186 8.64658 88.0499 9.06678C87.6811 9.48221 87.3971 9.95492 87.2028 10.4897C87.0085 11.0245 86.9138 11.5784 86.9138 12.1514C86.9138 12.7244 87.0085 13.2784 87.2028 13.8132C87.3971 14.348 87.6762 14.8207 88.0499 15.2361C88.4186 15.6515 88.862 15.981 89.3852 16.2293C89.9034 16.4776 90.4963 16.597 91.1491 16.597Z" fill="#000"/>
	<path d="M105.013 13.8987V18.053H103.02V6.25391H112.043V13.8987H105.013ZM105.013 12.0842H110.05V8.07319H105.013V12.0842Z" fill="#000"/>
	<path d="M118.074 6.25H120.167V18.0491H118.074V6.25Z" fill="#000"/>
	<path d="M132.87 18.0481L132.342 16.5488H127.718L127.19 18.0481H125.062L129.318 6.24902H130.743L134.998 18.0481H132.87ZM130.04 9.47217L128.336 14.8154H131.729L130.04 9.47217Z" fill="#000"/>
	<path d="M20.5883 3.51304L10.2742 0.5L0 3.51782V20.2782H8.08683V23.8069H10.1496V20.2782H20.5883V3.51782V3.51304ZM18.5255 18.3013H10.1496V13.6934L14.6539 9.37678L13.199 7.9777L10.1496 10.9V7.78192H8.08683V18.3013H2.06282V4.97898L10.2792 2.57236L18.5304 4.98375V18.3061L18.5255 18.3013Z" fill="#B8C83F"/>
</svg>
