<svg width="261" height="47" viewBox="0 0 261 47" fill="none" xmlns="http://www.w3.org/2000/svg">
<path d="M72.4809 26.4998L76.6696 35.3972H72.5098L68.3019 26.4998H62.1681V35.3972H58.3164V11.6035H75.6971V26.4998H72.4809ZM62.1681 23.2163H72.1246V15.2722H62.1681V23.2163Z" fill="#2B2F38"/>
<path d="M91.8821 15.0997V21.8305H101.704V25.3355H91.8821V31.893H101.704V35.3884H87.9727V11.5947H101.704V15.0997H91.8821Z" fill="#2B2F38"/>
<path d="M127.011 28.5316V11.6035H130.93V35.3972H126.645L117.228 18.4691V35.3972H113.318V11.6035H117.603L127.011 28.5316Z" fill="#2B2F38"/>
<path d="M146.368 15.0997H140.484V11.5947H156.19V15.0997H150.277V35.3884H146.368V15.0997Z" fill="#2B2F38"/>
<path d="M176.158 35.966C174.251 35.966 172.537 35.6193 171.006 34.9356C169.475 34.2423 168.185 33.3179 167.135 32.1624C166.076 31.0069 165.267 29.6781 164.699 28.1663C164.131 26.6642 163.852 25.1042 163.852 23.4962C163.852 21.8881 164.131 20.3282 164.699 18.826C165.267 17.3142 166.076 15.9854 167.135 14.8299C168.185 13.6744 169.475 12.75 171.006 12.0567C172.537 11.3634 174.251 11.0264 176.158 11.0264C178.064 11.0264 179.778 11.373 181.309 12.0567C182.84 12.75 184.131 13.6744 185.18 14.8299C186.23 15.9854 187.039 17.3239 187.607 18.826C188.175 20.3282 188.454 21.8881 188.454 23.4962C188.454 25.1042 188.175 26.6642 187.607 28.1663C187.039 29.6781 186.23 31.0069 185.18 32.1624C184.131 33.3179 182.831 34.2423 181.309 34.9356C179.778 35.6289 178.064 35.966 176.158 35.966ZM176.158 32.4609C177.429 32.4609 178.565 32.2202 179.566 31.7195C180.577 31.2188 181.444 30.5543 182.147 29.7166C182.86 28.8789 183.408 27.916 183.784 26.8471C184.16 25.7687 184.342 24.6517 184.342 23.4962C184.342 22.3407 184.16 21.2237 183.784 20.1452C183.418 19.0667 182.869 18.1135 182.147 17.2757C181.434 16.438 180.577 15.7639 179.566 15.2632C178.565 14.7625 177.419 14.5218 176.158 14.5218C174.896 14.5218 173.75 14.7721 172.749 15.2632C171.738 15.7639 170.881 16.4284 170.168 17.2757C169.456 18.1135 168.907 19.0667 168.531 20.1452C168.156 21.2237 167.973 22.3407 167.973 23.4962C167.973 24.6517 168.156 25.7687 168.531 26.8471C168.907 27.9256 169.446 28.8789 170.168 29.7166C170.881 30.5543 171.738 31.2188 172.749 31.7195C173.75 32.2202 174.896 32.4609 176.158 32.4609Z" fill="#2B2F38"/>
<path d="M202.945 27.0198V35.3972H199.094V11.6035H216.532V27.0198H202.945ZM202.945 23.3607H212.681V15.2722H202.945V23.3607Z" fill="#2B2F38"/>
<path d="M228.193 11.5947H232.238V35.3884H228.193V11.5947Z" fill="#2B2F38"/>
<path d="M256.784 35.3884L255.764 32.3648H246.828L245.807 35.3884H241.695L249.919 11.5947H252.673L260.896 35.3884H256.784ZM251.315 18.0944L248.022 28.8694H254.579L251.315 18.0944Z" fill="#2B2F38"/>
<path d="M39.7878 6.07601L19.8554 0L0 6.08565V39.884H15.6282V47H19.6146V39.884H39.7878V6.08565V6.07601ZM35.8013 35.8976H19.6146V26.6054L28.3194 17.9006L25.5077 15.0793L19.6146 20.9723V14.6845H15.6282V35.8976H3.98649V9.03217L19.865 4.17906L35.8109 9.04178V35.9072L35.8013 35.8976Z" fill="#01CCAD"/>
</svg>
