<svg width="626" height="382" viewBox="0 0 626 382" fill="none" xmlns="http://www.w3.org/2000/svg">
	<path
		d="M24.9998 94.5C16.5001 108.5 8.50016 143 8.5 165C8.49983 187 9.69408 203.065 13.4998 222C17.5749 241.471 25.3583 255.919 36.4997 273.5C47.6411 291.081 80.6872 326.242 125.5 346.5C164.252 363.981 193.018 369.279 252.5 373.5C298.924 374.367 327.613 370.975 382.5 359.5C444.59 342.076 475.845 326.397 527.5 292C565.477 264.682 580 250.5 586 243C592 235.5 619.5 200 622.5 180C625.5 160 624.577 153.746 620.5 139.5C616.28 129.097 612.619 122.674 604.5 110.5C589 91.9613 576.78 83.0404 550.5 69.0001C511.348 51.1363 485.91 43.4222 437 32.0001C373.138 16.4165 336.75 11.7133 271 9.00011C204.029 7.48203 166.494 7.50669 100 32.0001C62.8484 48.8571 49.954 58.6552 24.9998 94.5Z"
		fill="#00F0FF"/>
</svg>
