<svg width="181" height="48" viewBox="0 0 181 48" fill="none" xmlns="http://www.w3.org/2000/svg">
<rect x="0.75" y="0.75" width="179.5" height="46.5" fill="white" stroke="#01CCAD" stroke-width="1.5"/>
<path d="M37.433 20.3643V18.8182H45.5566V20.3643H42.4096V29H40.58V20.3643H37.433ZM47.9626 29V18.8182H54.5848V20.3643H49.8071V23.1286H54.2417V24.6747H49.8071V27.4538H54.6246V29H47.9626ZM58.8477 18.8182L61.0899 22.5469H61.1695L63.4216 18.8182H65.5246L62.3875 23.9091L65.5743 29H63.4365L61.1695 25.2962H61.0899L58.8229 29H56.695L59.9116 23.9091L56.7348 18.8182H58.8477ZM67.3651 20.3643V18.8182H75.4887V20.3643H72.3417V29H70.5121V20.3643H67.3651ZM82.2074 29V18.8182H86.1051C86.8409 18.8182 87.4524 18.9342 87.9396 19.1662C88.4302 19.3949 88.7964 19.7081 89.0384 20.1058C89.2836 20.5036 89.4062 20.9543 89.4062 21.4581C89.4062 21.8724 89.3267 22.227 89.1676 22.522C89.0085 22.8137 88.7947 23.0507 88.5263 23.233C88.2578 23.4152 87.9579 23.5462 87.6264 23.6257V23.7251C87.9877 23.745 88.334 23.8561 88.6655 24.0582C89.0002 24.2571 89.2737 24.5388 89.4858 24.9034C89.6979 25.268 89.804 25.7088 89.804 26.2259C89.804 26.7528 89.6764 27.2268 89.4212 27.6477C89.166 28.0653 88.7815 28.3951 88.2678 28.6371C87.754 28.879 87.1077 29 86.3288 29H82.2074ZM84.0518 27.4588H86.0355C86.705 27.4588 87.1873 27.3312 87.4822 27.076C87.7805 26.8175 87.9297 26.486 87.9297 26.0817C87.9297 25.7801 87.8551 25.5083 87.706 25.2663C87.5568 25.0211 87.3447 24.8288 87.0696 24.6896C86.7945 24.5471 86.4664 24.4759 86.0852 24.4759H84.0518V27.4588ZM84.0518 23.1484H85.8764C86.1946 23.1484 86.4813 23.0904 86.7365 22.9744C86.9917 22.8551 87.1922 22.6877 87.3381 22.4723C87.4872 22.2536 87.5618 21.995 87.5618 21.6967C87.5618 21.3023 87.4226 20.9775 87.1442 20.7223C86.8691 20.4671 86.4598 20.3395 85.9162 20.3395H84.0518V23.1484ZM98.6669 18.8182H100.511V25.4702C100.511 26.1993 100.339 26.8407 99.9943 27.3942C99.6529 27.9477 99.1723 28.3802 98.5525 28.6918C97.9327 29 97.2085 29.1541 96.3799 29.1541C95.548 29.1541 94.8222 29 94.2024 28.6918C93.5826 28.3802 93.102 27.9477 92.7606 27.3942C92.4192 26.8407 92.2486 26.1993 92.2486 25.4702V18.8182H94.093V25.3161C94.093 25.7403 94.1858 26.1181 94.3714 26.4496C94.5603 26.781 94.8255 27.0412 95.1669 27.2301C95.5083 27.4157 95.9126 27.5085 96.3799 27.5085C96.8473 27.5085 97.2516 27.4157 97.593 27.2301C97.9377 27.0412 98.2029 26.781 98.3885 26.4496C98.5741 26.1181 98.6669 25.7403 98.6669 25.3161V18.8182ZM102.909 20.3643V18.8182H111.032V20.3643H107.885V29H106.056V20.3643H102.909ZM112.991 20.3643V18.8182H121.114V20.3643H117.967V29H116.138V20.3643H112.991ZM132.167 23.9091C132.167 25.0062 131.962 25.9458 131.551 26.728C131.143 27.5069 130.586 28.1035 129.88 28.5178C129.178 28.9321 128.381 29.1392 127.489 29.1392C126.598 29.1392 125.799 28.9321 125.093 28.5178C124.39 28.1001 123.833 27.5019 123.422 26.723C123.015 25.9408 122.811 25.0028 122.811 23.9091C122.811 22.812 123.015 21.8741 123.422 21.0952C123.833 20.313 124.39 19.7147 125.093 19.3004C125.799 18.8861 126.598 18.679 127.489 18.679C128.381 18.679 129.178 18.8861 129.88 19.3004C130.586 19.7147 131.143 20.313 131.551 21.0952C131.962 21.8741 132.167 22.812 132.167 23.9091ZM130.313 23.9091C130.313 23.1368 130.192 22.4856 129.95 21.9553C129.711 21.4216 129.38 21.0189 128.956 20.7472C128.531 20.4721 128.043 20.3345 127.489 20.3345C126.936 20.3345 126.447 20.4721 126.022 20.7472C125.598 21.0189 125.265 21.4216 125.023 21.9553C124.785 22.4856 124.665 23.1368 124.665 23.9091C124.665 24.6813 124.785 25.3343 125.023 25.8679C125.265 26.3982 125.598 26.8009 126.022 27.076C126.447 27.3478 126.936 27.4837 127.489 27.4837C128.043 27.4837 128.531 27.3478 128.956 27.076C129.38 26.8009 129.711 26.3982 129.95 25.8679C130.192 25.3343 130.313 24.6813 130.313 23.9091ZM143.118 18.8182V29H141.478L136.68 22.0646H136.596V29H134.751V18.8182H136.402L141.194 25.7585H141.284V18.8182H143.118Z" fill="#01CCAD"/>
</svg>
